<svg xmlns="http://www.w3.org/2000/svg" xmlns:xlink="http://www.w3.org/1999/xlink" width="1171" zoomAndPan="magnify" viewBox="0 0 878.25 57.749997" height="77" preserveAspectRatio="xMidYMid meet" version="1.2"><defs><clipPath id="5da1a21db4"><path d="M 1.519531 0 L 85 0 L 85 57.5 L 1.519531 57.5 Z M 1.519531 0 "/></clipPath><clipPath id="8c581c020a"><path d="M 83 0 L 183 0 L 183 57.5 L 83 57.5 Z M 83 0 "/></clipPath><clipPath id="51740cc6cf"><path d="M 185 0 L 274 0 L 274 57.5 L 185 57.5 Z M 185 0 "/></clipPath><clipPath id="3b3bdfbca9"><path d="M 281 0 L 370 0 L 370 57.5 L 281 57.5 Z M 281 0 "/></clipPath><clipPath id="d53a6e1a79"><path d="M 372 0 L 472 0 L 472 57.5 L 372 57.5 Z M 372 0 "/></clipPath><clipPath id="761d737175"><path d="M 474 0 L 563 0 L 563 57.5 L 474 57.5 Z M 474 0 "/></clipPath><clipPath id="020118a5ed"><path d="M 568 57 L 569 57 L 569 57.5 L 568 57.5 Z M 568 57 "/></clipPath><clipPath id="c96733ec2a"><path d="M 606 0 L 692 0 L 692 57.5 L 606 57.5 Z M 606 0 "/></clipPath><clipPath id="6675fcbc5c"><path d="M 690 0 L 790 0 L 790 57.5 L 690 57.5 Z M 690 0 "/></clipPath><clipPath id="e4c3455570"><path d="M 792 0 L 875.984375 0 L 875.984375 57.5 L 792 57.5 Z M 792 0 "/></clipPath></defs><g id="e0bfdca9dd"><g clip-rule="nonzero" clip-path="url(#5da1a21db4)"><g style="fill:#ffe9d9;fill-opacity:1;"><g transform="translate(-4.755192, 57.199254)"><path style="stroke:none" d="M 5.6875 -56.9375 L 68.890625 -56.9375 C 74.859375 -56.9375 79.375 -55.582031 82.4375 -52.875 C 85.5 -50.164062 87.03125 -46.503906 87.03125 -41.890625 C 87.03125 -40.640625 86.828125 -39.363281 86.421875 -38.0625 C 86.015625 -36.757812 85.457031 -35.523438 84.75 -34.359375 C 84.050781 -33.203125 83.210938 -32.175781 82.234375 -31.28125 C 81.265625 -30.382812 80.234375 -29.691406 79.140625 -29.203125 C 80.984375 -28.710938 82.539062 -27.992188 83.8125 -27.046875 C 85.09375 -26.097656 86.125 -25.039062 86.90625 -23.875 C 87.695312 -22.707031 88.253906 -21.5 88.578125 -20.25 C 88.910156 -19.007812 89.078125 -17.875 89.078125 -16.84375 C 89.078125 -14.070312 88.695312 -11.628906 87.9375 -9.515625 C 87.175781 -7.398438 85.898438 -5.632812 84.109375 -4.21875 C 82.316406 -2.8125 79.96875 -1.753906 77.0625 -1.046875 C 74.164062 -0.347656 70.601562 0 66.375 0 L 5.6875 0 Z M 25.21875 -15.453125 L 61.90625 -15.453125 C 64.238281 -15.453125 65.769531 -15.640625 66.5 -16.015625 C 67.226562 -16.398438 67.59375 -17.160156 67.59375 -18.296875 C 67.59375 -19.378906 67.226562 -20.109375 66.5 -20.484375 C 65.769531 -20.867188 64.238281 -21.0625 61.90625 -21.0625 L 25.21875 -21.0625 Z M 25.21875 -35.796875 L 59.875 -35.796875 C 62.195312 -35.796875 63.722656 -35.984375 64.453125 -36.359375 C 65.191406 -36.742188 65.5625 -37.503906 65.5625 -38.640625 C 65.5625 -39.722656 65.191406 -40.453125 64.453125 -40.828125 C 63.722656 -41.210938 62.195312 -41.40625 59.875 -41.40625 L 25.21875 -41.40625 Z M 25.21875 -35.796875 "/></g></g></g><g clip-rule="nonzero" clip-path="url(#8c581c020a)"><g style="fill:#ffe9d9;fill-opacity:1;"><g transform="translate(86.344615, 57.199254)"><path style="stroke:none" d="M 95.734375 0 L 73.53125 0 L 68 -8.546875 L 25.21875 -8.546875 L 19.765625 0 L -2.4375 0 L 34.25 -56.9375 L 59.0625 -56.9375 Z M 34.578125 -23.1875 L 58.65625 -23.1875 L 46.609375 -41.890625 Z M 34.578125 -23.1875 "/></g></g></g><g clip-rule="nonzero" clip-path="url(#51740cc6cf)"><g style="fill:#ffe9d9;fill-opacity:1;"><g transform="translate(179.640682, 57.199254)"><path style="stroke:none" d="M 5.6875 -56.9375 L 61.90625 -56.9375 C 67.59375 -56.9375 72.441406 -56.160156 76.453125 -54.609375 C 80.472656 -53.066406 83.753906 -50.992188 86.296875 -48.390625 C 88.847656 -45.796875 90.707031 -42.757812 91.875 -39.28125 C 93.039062 -35.8125 93.625 -32.15625 93.625 -28.3125 C 93.625 -24.457031 93.039062 -20.804688 91.875 -17.359375 C 90.707031 -13.921875 88.847656 -10.910156 86.296875 -8.328125 C 83.753906 -5.753906 80.472656 -3.722656 76.453125 -2.234375 C 72.441406 -0.742188 67.59375 0 61.90625 0 L 5.6875 0 Z M 25.21875 -41.640625 L 25.21875 -15.21875 L 57.421875 -15.21875 C 60.679688 -15.21875 63.394531 -15.554688 65.5625 -16.234375 C 67.726562 -16.910156 69.4375 -17.84375 70.6875 -19.03125 C 71.9375 -20.226562 72.816406 -21.625 73.328125 -23.21875 C 73.847656 -24.820312 74.109375 -26.546875 74.109375 -28.390625 C 74.109375 -30.234375 73.847656 -31.953125 73.328125 -33.546875 C 72.816406 -35.148438 71.9375 -36.546875 70.6875 -37.734375 C 69.4375 -38.929688 67.726562 -39.878906 65.5625 -40.578125 C 63.394531 -41.285156 60.679688 -41.640625 57.421875 -41.640625 Z M 25.21875 -41.640625 "/></g></g></g><g clip-rule="nonzero" clip-path="url(#3b3bdfbca9)"><g style="fill:#ffe9d9;fill-opacity:1;"><g transform="translate(275.702281, 57.199254)"><path style="stroke:none" d="M 74.34375 -21.0625 L 25.21875 -21.0625 L 25.21875 0 L 5.6875 0 L 5.6875 -56.9375 L 25.21875 -56.9375 L 25.21875 -36.515625 L 74.34375 -36.515625 L 74.34375 -56.9375 L 93.875 -56.9375 L 93.875 0 L 74.34375 0 Z M 74.34375 -21.0625 "/></g></g></g><g clip-rule="nonzero" clip-path="url(#d53a6e1a79)"><g style="fill:#ffe9d9;fill-opacity:1;"><g transform="translate(375.261468, 57.199254)"><path style="stroke:none" d="M 95.734375 0 L 73.53125 0 L 68 -8.546875 L 25.21875 -8.546875 L 19.765625 0 L -2.4375 0 L 34.25 -56.9375 L 59.0625 -56.9375 Z M 34.578125 -23.1875 L 58.65625 -23.1875 L 46.609375 -41.890625 Z M 34.578125 -23.1875 "/></g></g></g><g clip-rule="nonzero" clip-path="url(#761d737175)"><g style="fill:#ffe9d9;fill-opacity:1;"><g transform="translate(468.557547, 57.199254)"><path style="stroke:none" d="M 94.359375 0 L 73.203125 0 L 25.21875 -36.515625 L 25.21875 0 L 5.6875 0 L 5.6875 -57.015625 L 29.046875 -57.015625 L 74.84375 -22.125 L 74.84375 -56.9375 L 94.359375 -56.9375 Z M 94.359375 0 "/></g></g></g><g clip-rule="nonzero" clip-path="url(#020118a5ed)"><g style="fill:#ffe9d9;fill-opacity:1;"><g transform="translate(568.604749, 57.199254)"><path style="stroke:none" d=""/></g></g></g><g clip-rule="nonzero" clip-path="url(#c96733ec2a)"><g style="fill:#ffe9d9;fill-opacity:1;"><g transform="translate(605.207371, 57.199254)"><path style="stroke:none" d="M 66.625 -18.46875 C 66.625 -19.113281 66.390625 -19.625 65.921875 -20 C 65.460938 -20.382812 64.609375 -20.65625 63.359375 -20.8125 C 62.117188 -20.976562 60.425781 -21.078125 58.28125 -21.109375 C 56.132812 -21.140625 53.410156 -21.15625 50.109375 -21.15625 L 30.34375 -21.15625 C 24.539062 -21.15625 19.898438 -21.722656 16.421875 -22.859375 C 12.953125 -23.992188 10.269531 -25.414062 8.375 -27.125 C 6.476562 -28.832031 5.226562 -30.675781 4.625 -32.65625 C 4.03125 -34.632812 3.734375 -36.46875 3.734375 -38.15625 C 3.734375 -40.207031 4.03125 -42.34375 4.625 -44.5625 C 5.226562 -46.789062 6.476562 -48.8125 8.375 -50.625 C 10.269531 -52.445312 12.953125 -53.953125 16.421875 -55.140625 C 19.898438 -56.335938 24.539062 -56.9375 30.34375 -56.9375 L 61.09375 -56.9375 C 65.539062 -56.9375 69.195312 -56.488281 72.0625 -55.59375 C 74.9375 -54.695312 77.253906 -53.4375 79.015625 -51.8125 C 80.785156 -50.1875 82.117188 -48.207031 83.015625 -45.875 C 83.910156 -43.539062 84.570312 -40.9375 85 -38.0625 L 65.5625 -38.0625 C 65.238281 -38.71875 64.898438 -39.257812 64.546875 -39.6875 C 64.191406 -40.125 63.703125 -40.488281 63.078125 -40.78125 C 62.453125 -41.082031 61.625 -41.300781 60.59375 -41.4375 C 59.570312 -41.570312 58.242188 -41.640625 56.609375 -41.640625 L 39.78125 -41.640625 C 36.414062 -41.640625 33.675781 -41.613281 31.5625 -41.5625 C 29.445312 -41.507812 27.765625 -41.390625 26.515625 -41.203125 C 25.265625 -41.015625 24.410156 -40.703125 23.953125 -40.265625 C 23.492188 -39.828125 23.265625 -39.226562 23.265625 -38.46875 C 23.265625 -37.820312 23.492188 -37.304688 23.953125 -36.921875 C 24.410156 -36.546875 25.265625 -36.273438 26.515625 -36.109375 C 27.765625 -35.953125 29.445312 -35.859375 31.5625 -35.828125 C 33.675781 -35.804688 36.414062 -35.796875 39.78125 -35.796875 L 59.546875 -35.796875 C 65.296875 -35.796875 69.914062 -35.222656 73.40625 -34.078125 C 76.90625 -32.941406 79.601562 -31.519531 81.5 -29.8125 C 83.40625 -28.101562 84.65625 -26.257812 85.25 -24.28125 C 85.84375 -22.300781 86.140625 -20.472656 86.140625 -18.796875 C 86.140625 -16.734375 85.84375 -14.585938 85.25 -12.359375 C 84.65625 -10.140625 83.40625 -8.109375 81.5 -6.265625 C 79.601562 -4.421875 76.90625 -2.914062 73.40625 -1.75 C 69.914062 -0.582031 65.296875 0 59.546875 0 L 25.546875 0 C 21.097656 0 17.4375 -0.445312 14.5625 -1.34375 C 11.6875 -2.238281 9.367188 -3.5 7.609375 -5.125 C 5.847656 -6.75 4.519531 -8.726562 3.625 -11.0625 C 2.726562 -13.394531 2.0625 -16 1.625 -18.875 L 21.0625 -18.875 C 21.394531 -18.21875 21.734375 -17.671875 22.078125 -17.234375 C 22.429688 -16.804688 22.921875 -16.441406 23.546875 -16.140625 C 24.171875 -15.847656 25 -15.632812 26.03125 -15.5 C 27.0625 -15.363281 28.390625 -15.296875 30.015625 -15.296875 L 50.109375 -15.296875 C 53.410156 -15.296875 56.132812 -15.304688 58.28125 -15.328125 C 60.425781 -15.359375 62.117188 -15.484375 63.359375 -15.703125 C 64.609375 -15.921875 65.460938 -16.242188 65.921875 -16.671875 C 66.390625 -17.109375 66.625 -17.707031 66.625 -18.46875 Z M 66.625 -18.46875 "/></g></g></g><g clip-rule="nonzero" clip-path="url(#6675fcbc5c)"><g style="fill:#ffe9d9;fill-opacity:1;"><g transform="translate(693.379087, 57.199254)"><path style="stroke:none" d="M 95.734375 0 L 73.53125 0 L 68 -8.546875 L 25.21875 -8.546875 L 19.765625 0 L -2.4375 0 L 34.25 -56.9375 L 59.0625 -56.9375 Z M 34.578125 -23.1875 L 58.65625 -23.1875 L 46.609375 -41.890625 Z M 34.578125 -23.1875 "/></g></g></g><g clip-rule="nonzero" clip-path="url(#e4c3455570)"><g style="fill:#ffe9d9;fill-opacity:1;"><g transform="translate(786.675166, 57.199254)"><path style="stroke:none" d="M 94.359375 0 L 73.203125 0 L 25.21875 -36.515625 L 25.21875 0 L 5.6875 0 L 5.6875 -57.015625 L 29.046875 -57.015625 L 74.84375 -22.125 L 74.84375 -56.9375 L 94.359375 -56.9375 Z M 94.359375 0 "/></g></g></g></g></svg>