<svg xmlns="http://www.w3.org/2000/svg" xmlns:xlink="http://www.w3.org/1999/xlink" width="195" zoomAndPan="magnify" viewBox="0 0 146.25 42" height="56" preserveAspectRatio="xMidYMid meet" version="1.0"><defs><g/><clipPath id="9651654e61"><path d="M 1.335938 0 L 34 0 L 34 40 L 1.335938 40 Z M 1.335938 0 " clip-rule="nonzero"/></clipPath></defs><g clip-path="url(#9651654e61)"><g fill="#000000" fill-opacity="1"><g transform="translate(3.24582, 36.896516)"><g><path d="M -1.609375 2.546875 C -1.378906 2.546875 -1.144531 2.375 -0.90625 2.03125 C -0.75 1.832031 -0.648438 1.734375 -0.609375 1.734375 C -0.0351562 1.941406 0.65625 2.046875 1.46875 2.046875 C 4.050781 2.046875 7.5 1.144531 11.8125 -0.65625 C 14.25 -1.644531 16.609375 -2.816406 18.890625 -4.171875 C 21.179688 -5.523438 23.171875 -6.953125 24.859375 -8.453125 C 27.640625 -11.097656 29.03125 -13.554688 29.03125 -15.828125 C 29.03125 -17.441406 28.390625 -18.734375 27.109375 -19.703125 C 25.835938 -20.679688 23.988281 -21.1875 21.5625 -21.21875 L 20.671875 -21.21875 L 20.84375 -21.328125 C 24.71875 -23.523438 27.488281 -25.507812 29.15625 -27.28125 C 30.144531 -28.320312 30.640625 -29.140625 30.640625 -29.734375 C 30.640625 -29.929688 30.585938 -30.109375 30.484375 -30.265625 C 30.296875 -30.515625 30 -30.640625 29.59375 -30.640625 C 29.25 -30.640625 28.6875 -30.5 27.90625 -30.21875 C 27.132812 -29.9375 25.945312 -29.238281 24.34375 -28.125 C 21.957031 -26.476562 19.242188 -24.179688 16.203125 -21.234375 L 15.125 -20.234375 C 14.851562 -20.140625 14.59375 -20.050781 14.34375 -19.96875 C 14.101562 -19.882812 13.894531 -19.8125 13.71875 -19.75 C 13.550781 -19.6875 13.457031 -19.65625 13.4375 -19.65625 C 13.425781 -19.65625 13.410156 -19.65625 13.390625 -19.65625 C 13.390625 -19.726562 16.097656 -23.523438 21.515625 -31.046875 C 22.929688 -32.972656 23.816406 -34.25 24.171875 -34.875 C 24.359375 -35.195312 24.453125 -35.453125 24.453125 -35.640625 C 24.453125 -35.765625 24.410156 -35.863281 24.328125 -35.9375 C 24.253906 -36.019531 24.171875 -36.0625 24.078125 -36.0625 C 23.867188 -36.0625 23.625 -35.828125 23.34375 -35.359375 C 23.164062 -35.066406 22.835938 -34.609375 22.359375 -33.984375 L 21.546875 -32.84375 C 20.660156 -31.613281 20.050781 -30.785156 19.71875 -30.359375 L 19.25 -29.703125 C 17.34375 -27.085938 14.941406 -23.722656 12.046875 -19.609375 C 12.046875 -19.585938 12.035156 -19.578125 12.015625 -19.578125 C 11.847656 -19.347656 11.707031 -19.160156 11.59375 -19.015625 C 11.488281 -18.878906 11.359375 -18.75 11.203125 -18.625 C 10.171875 -18.0625 9.65625 -17.578125 9.65625 -17.171875 C 9.65625 -17.035156 9.71875 -16.90625 9.84375 -16.78125 L 9.984375 -16.640625 C 7.898438 -13.648438 5.5 -10.09375 2.78125 -5.96875 L 2.140625 -5.046875 L 1.65625 -4.6875 C -0.769531 -2.945312 -1.984375 -1.414062 -1.984375 -0.09375 C -1.984375 0.1875 -1.929688 0.457031 -1.828125 0.71875 L -1.65625 1.03125 L -1.859375 1.421875 C -2.015625 1.691406 -2.09375 1.910156 -2.09375 2.078125 C -2.09375 2.273438 -1.992188 2.414062 -1.796875 2.5 C -1.734375 2.53125 -1.671875 2.546875 -1.609375 2.546875 Z M 1.609375 0.953125 L 1.28125 0.953125 C 0.957031 0.953125 0.65625 0.9375 0.375 0.90625 C 0.09375 0.875 -0.046875 0.828125 -0.046875 0.765625 C -0.046875 0.753906 0.09375 0.535156 0.375 0.109375 C 2.070312 -2.429688 3.171875 -4.054688 3.671875 -4.765625 L 4.21875 -5.0625 C 5.914062 -5.96875 8.957031 -7.175781 13.34375 -8.6875 L 18.625 -10.5 C 19.4375 -10.78125 19.878906 -10.988281 19.953125 -11.125 L 19.984375 -11.265625 C 19.984375 -11.628906 19.828125 -11.8125 19.515625 -11.8125 C 19.398438 -11.8125 19.265625 -11.785156 19.109375 -11.734375 C 18.378906 -11.515625 17.070312 -11.082031 15.1875 -10.4375 L 11.203125 -9.0625 C 8.929688 -8.25 7.15625 -7.5625 5.875 -7 C 5.488281 -6.8125 5.257812 -6.71875 5.1875 -6.71875 C 5.164062 -6.71875 5.15625 -6.726562 5.15625 -6.75 L 5.15625 -6.796875 C 5.15625 -6.859375 5.4375 -7.238281 6 -7.9375 C 8.78125 -11.632812 11.613281 -14.992188 14.5 -18.015625 L 16.4375 -19 C 17.519531 -19.539062 18.191406 -19.84375 18.453125 -19.90625 C 18.796875 -19.96875 19.046875 -20 19.203125 -20 C 20.085938 -20.113281 20.914062 -20.171875 21.6875 -20.171875 C 23.132812 -20.171875 24.460938 -19.910156 25.671875 -19.390625 C 26.890625 -18.878906 27.628906 -17.976562 27.890625 -16.6875 C 27.929688 -16.425781 27.953125 -16.160156 27.953125 -15.890625 C 27.953125 -13.484375 26.242188 -10.894531 22.828125 -8.125 C 19.671875 -5.675781 15.921875 -3.535156 11.578125 -1.703125 C 8.273438 -0.304688 5.394531 0.554688 2.9375 0.890625 C 2.5 0.929688 2.054688 0.953125 1.609375 0.953125 Z M -0.953125 -0.203125 C -0.953125 -0.347656 -0.835938 -0.625 -0.609375 -1.03125 C -0.328125 -1.476562 -0.09375 -1.796875 0.09375 -1.984375 C 0.164062 -2.085938 0.21875 -2.140625 0.25 -2.140625 C 0.25 -2.097656 0.0664062 -1.773438 -0.296875 -1.171875 C -0.703125 -0.523438 -0.921875 -0.203125 -0.953125 -0.203125 Z M 9.5625 -14.171875 C 9.5625 -14.203125 10.160156 -15.078125 11.359375 -16.796875 L 12.0625 -17.015625 C 12.0625 -16.992188 11.472656 -16.316406 10.296875 -14.984375 C 9.898438 -14.484375 9.65625 -14.210938 9.5625 -14.171875 Z M 17.203125 -20.75 C 19.390625 -22.9375 21.738281 -24.925781 24.25 -26.71875 C 26.300781 -28.1875 27.875 -29.097656 28.96875 -29.453125 C 29.195312 -29.523438 29.359375 -29.5625 29.453125 -29.5625 C 29.492188 -29.5625 29.515625 -29.546875 29.515625 -29.515625 C 29.515625 -29.453125 29.414062 -29.285156 29.21875 -29.015625 C 27.757812 -26.972656 24.359375 -24.472656 19.015625 -21.515625 C 18.566406 -21.285156 18.234375 -21.113281 18.015625 -21 C 17.796875 -20.894531 17.523438 -20.8125 17.203125 -20.75 Z M 17.203125 -20.75 "/></g></g></g></g><g fill="#000000" fill-opacity="1"><g transform="translate(36.403398, 36.896516)"><g><path d="M 3.4375 -10.265625 C 3.769531 -10.265625 4.175781 -10.351562 4.65625 -10.53125 C 5.132812 -10.71875 5.765625 -11.070312 6.546875 -11.59375 C 7.328125 -12.113281 8.085938 -12.660156 8.828125 -13.234375 L 9.125 -13.4375 C 9.53125 -13.769531 9.875 -14.050781 10.15625 -14.28125 C 10.4375 -14.519531 10.578125 -14.671875 10.578125 -14.734375 C 10.585938 -14.804688 10.59375 -14.859375 10.59375 -14.890625 C 10.59375 -15.023438 10.550781 -15.125 10.46875 -15.1875 C 10.382812 -15.25 10.285156 -15.28125 10.171875 -15.28125 C 10.128906 -15.28125 10.046875 -15.269531 9.921875 -15.25 C 9.804688 -15.238281 9.378906 -14.957031 8.640625 -14.40625 C 7.390625 -13.445312 6.285156 -12.675781 5.328125 -12.09375 C 4.484375 -11.570312 3.882812 -11.3125 3.53125 -11.3125 C 3.21875 -11.3125 3.0625 -11.460938 3.0625 -11.765625 C 3.0625 -11.828125 3.085938 -12.007812 3.140625 -12.3125 C 3.191406 -12.613281 3.628906 -13.25 4.453125 -14.21875 C 4.765625 -14.550781 4.921875 -14.8125 4.921875 -15 C 4.921875 -15.175781 4.820312 -15.296875 4.625 -15.359375 C 4.570312 -15.367188 4.523438 -15.398438 4.484375 -15.453125 C 4.453125 -15.515625 4.410156 -15.578125 4.359375 -15.640625 C 4.066406 -16.078125 3.648438 -16.296875 3.109375 -16.296875 C 2.078125 -16.296875 0.988281 -15.742188 -0.15625 -14.640625 C -1.25 -13.460938 -1.796875 -12.507812 -1.796875 -11.78125 L -1.78125 -11.5 C -1.6875 -11.050781 -1.390625 -10.828125 -0.890625 -10.828125 C -0.265625 -10.828125 0.484375 -11.140625 1.359375 -11.765625 C 1.398438 -11.804688 1.5625 -11.929688 1.84375 -12.140625 L 2.046875 -12.25 C 2.066406 -12.25 2.078125 -12.210938 2.078125 -12.140625 L 2.046875 -11.78125 C 2.046875 -11.039062 2.367188 -10.550781 3.015625 -10.3125 C 3.140625 -10.28125 3.28125 -10.265625 3.4375 -10.265625 Z M -0.65625 -11.8125 C -0.695312 -11.8125 -0.71875 -11.828125 -0.71875 -11.859375 C -0.71875 -11.929688 -0.664062 -12.09375 -0.5625 -12.34375 C -0.28125 -12.90625 0.140625 -13.441406 0.703125 -13.953125 C 1.117188 -14.347656 1.546875 -14.675781 1.984375 -14.9375 C 2.515625 -15.25 2.925781 -15.40625 3.21875 -15.40625 C 3.457031 -15.40625 3.582031 -15.285156 3.59375 -15.046875 C 3.59375 -14.941406 3.097656 -14.484375 2.109375 -13.671875 C 1.117188 -12.867188 0.398438 -12.34375 -0.046875 -12.09375 C -0.359375 -11.90625 -0.5625 -11.8125 -0.65625 -11.8125 Z M -0.65625 -11.8125 "/></g></g></g><g fill="#000000" fill-opacity="1"><g transform="translate(45.526986, 36.896516)"><g><path d="M 4.359375 -10.40625 C 4.785156 -10.40625 5.410156 -10.585938 6.234375 -10.953125 C 7.054688 -11.316406 8.445312 -12.125 10.40625 -13.375 C 10.9375 -13.695312 11.320312 -13.941406 11.5625 -14.109375 C 11.800781 -14.285156 11.945312 -14.414062 12 -14.5 C 12.0625 -14.59375 12.09375 -14.675781 12.09375 -14.75 L 12.09375 -14.8125 C 12.039062 -15.082031 11.90625 -15.21875 11.6875 -15.21875 C 11.488281 -15.21875 11.21875 -15.109375 10.875 -14.890625 C 7.34375 -12.617188 5.210938 -11.484375 4.484375 -11.484375 C 4.273438 -11.484375 4.171875 -11.5625 4.171875 -11.71875 C 4.171875 -12.132812 4.398438 -12.796875 4.859375 -13.703125 C 5.316406 -14.617188 6.210938 -16.1875 7.546875 -18.40625 C 8.890625 -20.632812 9.695312 -21.988281 9.96875 -22.46875 C 10.664062 -23.632812 11.203125 -24.546875 11.578125 -25.203125 C 11.960938 -25.859375 12.273438 -26.375 12.515625 -26.75 C 14.003906 -29.238281 15.015625 -30.957031 15.546875 -31.90625 C 15.898438 -32.5625 16.078125 -32.960938 16.078125 -33.109375 C 16.078125 -33.222656 16.039062 -33.3125 15.96875 -33.375 C 15.90625 -33.445312 15.828125 -33.484375 15.734375 -33.484375 C 15.640625 -33.484375 15.515625 -33.40625 15.359375 -33.25 C 14.828125 -32.695312 12.695312 -29.207031 8.96875 -22.78125 L 6.65625 -18.859375 C 5.5625 -17.066406 4.992188 -16.117188 4.953125 -16.015625 C 4.804688 -15.804688 4.71875 -15.703125 4.6875 -15.703125 C 4.675781 -15.703125 4.671875 -15.722656 4.671875 -15.765625 C 4.671875 -15.816406 4.554688 -15.9375 4.328125 -16.125 C 4.097656 -16.3125 3.773438 -16.40625 3.359375 -16.40625 C 2.753906 -16.40625 2.007812 -16.128906 1.125 -15.578125 C 0.25 -15.035156 -0.488281 -14.332031 -1.09375 -13.46875 C -1.40625 -13 -1.5625 -12.585938 -1.5625 -12.234375 C -1.5625 -11.898438 -1.4375 -11.617188 -1.1875 -11.390625 C -1.050781 -11.265625 -0.859375 -11.203125 -0.609375 -11.203125 C -0.390625 -11.203125 -0.046875 -11.285156 0.421875 -11.453125 C 0.890625 -11.628906 1.742188 -12.113281 2.984375 -12.90625 C 3.222656 -13.0625 3.363281 -13.140625 3.40625 -13.140625 C 3.4375 -13.140625 3.453125 -13.125 3.453125 -13.09375 L 3.359375 -12.796875 C 3.222656 -12.359375 3.15625 -11.984375 3.15625 -11.671875 C 3.15625 -11.078125 3.398438 -10.6875 3.890625 -10.5 C 4.015625 -10.4375 4.171875 -10.40625 4.359375 -10.40625 Z M -0.421875 -12.25 C -0.460938 -12.25 -0.484375 -12.273438 -0.484375 -12.328125 C -0.484375 -12.390625 -0.453125 -12.488281 -0.390625 -12.625 C -0.160156 -13.070312 0.179688 -13.503906 0.640625 -13.921875 C 1.097656 -14.347656 1.578125 -14.703125 2.078125 -14.984375 C 2.640625 -15.273438 3.097656 -15.421875 3.453125 -15.421875 C 3.742188 -15.421875 3.890625 -15.265625 3.890625 -14.953125 L 3.890625 -14.71875 L 3.03125 -14.171875 C 1.957031 -13.453125 1.070312 -12.921875 0.375 -12.578125 C -0.0625 -12.359375 -0.328125 -12.25 -0.421875 -12.25 Z M -0.421875 -12.25 "/></g></g></g><g fill="#000000" fill-opacity="1"><g transform="translate(56.517291, 36.896516)"><g><path d="M -1.703125 -9.984375 C -1.640625 -9.984375 -1.582031 -10.003906 -1.53125 -10.046875 C -1.488281 -10.085938 -1.335938 -10.234375 -1.078125 -10.484375 C -0.828125 -10.742188 -0.59375 -11 -0.375 -11.25 C 1.550781 -13.238281 3.035156 -14.410156 4.078125 -14.765625 L 4.21875 -14.796875 C 4.28125 -14.796875 4.3125 -14.765625 4.3125 -14.703125 C 4.3125 -14.566406 4.171875 -14.191406 3.890625 -13.578125 C 3.523438 -12.804688 3.34375 -12.191406 3.34375 -11.734375 C 3.34375 -11.378906 3.453125 -11.125 3.671875 -10.96875 C 3.835938 -10.78125 4.0625 -10.6875 4.34375 -10.6875 C 4.375 -10.6875 4.484375 -10.691406 4.671875 -10.703125 C 4.859375 -10.722656 5.335938 -10.925781 6.109375 -11.3125 C 6.890625 -11.707031 8.023438 -12.332031 9.515625 -13.1875 L 11.015625 -14 C 11.523438 -14.269531 11.78125 -14.519531 11.78125 -14.75 C 11.78125 -14.851562 11.71875 -14.953125 11.59375 -15.046875 C 11.582031 -15.046875 11.578125 -15.054688 11.578125 -15.078125 C 11.492188 -15.148438 11.40625 -15.1875 11.3125 -15.1875 C 11.25 -15.1875 11.164062 -15.171875 11.0625 -15.140625 C 10.894531 -15.097656 10.347656 -14.820312 9.421875 -14.3125 C 7.273438 -13.09375 5.957031 -12.367188 5.46875 -12.140625 C 4.882812 -11.859375 4.523438 -11.71875 4.390625 -11.71875 C 4.367188 -11.71875 4.359375 -11.734375 4.359375 -11.765625 C 4.359375 -11.929688 4.5625 -12.5 4.96875 -13.46875 C 5.21875 -14.09375 5.34375 -14.585938 5.34375 -14.953125 C 5.34375 -15.566406 5.03125 -15.875 4.40625 -15.875 C 3.726562 -15.875 2.765625 -15.390625 1.515625 -14.421875 C 1.316406 -14.253906 1.191406 -14.171875 1.140625 -14.171875 L 6.1875 -22.328125 L 10.6875 -29.59375 L 11.015625 -30.15625 C 11.804688 -31.363281 12.304688 -32.171875 12.515625 -32.578125 C 12.546875 -32.640625 12.5625 -32.71875 12.5625 -32.8125 C 12.5625 -32.957031 12.515625 -33.070312 12.421875 -33.15625 C 12.335938 -33.25 12.234375 -33.296875 12.109375 -33.296875 C 12.078125 -33.296875 12.054688 -33.304688 12.046875 -33.328125 C 12.015625 -33.328125 11.96875 -33.316406 11.90625 -33.296875 C 11.851562 -33.285156 11.75 -33.175781 11.59375 -32.96875 C 11.4375 -32.757812 11.160156 -32.316406 10.765625 -31.640625 L 8.890625 -28.65625 L 7.953125 -27.125 L 5.671875 -23.453125 C 5.285156 -22.816406 4.925781 -22.25 4.59375 -21.75 L 3.25 -19.53125 C 2.34375 -18.070312 1.484375 -16.703125 0.671875 -15.421875 C -0.273438 -13.835938 -1.109375 -12.484375 -1.828125 -11.359375 C -2.066406 -10.960938 -2.1875 -10.644531 -2.1875 -10.40625 C -2.1875 -10.238281 -2.125 -10.113281 -2 -10.03125 C -1.96875 -10.03125 -1.929688 -10.019531 -1.890625 -10 C -1.847656 -9.988281 -1.785156 -9.984375 -1.703125 -9.984375 Z M -1.703125 -9.984375 "/></g></g></g><g fill="#000000" fill-opacity="1"><g transform="translate(66.97091, 36.896516)"><g><path d="M 3.4375 -10.265625 C 3.769531 -10.265625 4.175781 -10.351562 4.65625 -10.53125 C 5.132812 -10.71875 5.765625 -11.070312 6.546875 -11.59375 C 7.328125 -12.113281 8.085938 -12.660156 8.828125 -13.234375 L 9.125 -13.4375 C 9.53125 -13.769531 9.875 -14.050781 10.15625 -14.28125 C 10.4375 -14.519531 10.578125 -14.671875 10.578125 -14.734375 C 10.585938 -14.804688 10.59375 -14.859375 10.59375 -14.890625 C 10.59375 -15.023438 10.550781 -15.125 10.46875 -15.1875 C 10.382812 -15.25 10.285156 -15.28125 10.171875 -15.28125 C 10.128906 -15.28125 10.046875 -15.269531 9.921875 -15.25 C 9.804688 -15.238281 9.378906 -14.957031 8.640625 -14.40625 C 7.390625 -13.445312 6.285156 -12.675781 5.328125 -12.09375 C 4.484375 -11.570312 3.882812 -11.3125 3.53125 -11.3125 C 3.21875 -11.3125 3.0625 -11.460938 3.0625 -11.765625 C 3.0625 -11.828125 3.085938 -12.007812 3.140625 -12.3125 C 3.191406 -12.613281 3.628906 -13.25 4.453125 -14.21875 C 4.765625 -14.550781 4.921875 -14.8125 4.921875 -15 C 4.921875 -15.175781 4.820312 -15.296875 4.625 -15.359375 C 4.570312 -15.367188 4.523438 -15.398438 4.484375 -15.453125 C 4.453125 -15.515625 4.410156 -15.578125 4.359375 -15.640625 C 4.066406 -16.078125 3.648438 -16.296875 3.109375 -16.296875 C 2.078125 -16.296875 0.988281 -15.742188 -0.15625 -14.640625 C -1.25 -13.460938 -1.796875 -12.507812 -1.796875 -11.78125 L -1.78125 -11.5 C -1.6875 -11.050781 -1.390625 -10.828125 -0.890625 -10.828125 C -0.265625 -10.828125 0.484375 -11.140625 1.359375 -11.765625 C 1.398438 -11.804688 1.5625 -11.929688 1.84375 -12.140625 L 2.046875 -12.25 C 2.066406 -12.25 2.078125 -12.210938 2.078125 -12.140625 L 2.046875 -11.78125 C 2.046875 -11.039062 2.367188 -10.550781 3.015625 -10.3125 C 3.140625 -10.28125 3.28125 -10.265625 3.4375 -10.265625 Z M -0.65625 -11.8125 C -0.695312 -11.8125 -0.71875 -11.828125 -0.71875 -11.859375 C -0.71875 -11.929688 -0.664062 -12.09375 -0.5625 -12.34375 C -0.28125 -12.90625 0.140625 -13.441406 0.703125 -13.953125 C 1.117188 -14.347656 1.546875 -14.675781 1.984375 -14.9375 C 2.515625 -15.25 2.925781 -15.40625 3.21875 -15.40625 C 3.457031 -15.40625 3.582031 -15.285156 3.59375 -15.046875 C 3.59375 -14.941406 3.097656 -14.484375 2.109375 -13.671875 C 1.117188 -12.867188 0.398438 -12.34375 -0.046875 -12.09375 C -0.359375 -11.90625 -0.5625 -11.8125 -0.65625 -11.8125 Z M -0.65625 -11.8125 "/></g></g></g><g fill="#000000" fill-opacity="1"><g transform="translate(76.094498, 36.896516)"><g><path d="M -0.859375 -10.59375 C -0.753906 -10.613281 -0.304688 -11.003906 0.484375 -11.765625 C 1.222656 -12.484375 1.816406 -13.03125 2.265625 -13.40625 C 2.710938 -13.789062 3.101562 -14.0625 3.4375 -14.21875 L 3.578125 -14.3125 C 3.578125 -14.226562 3.566406 -14.144531 3.546875 -14.0625 C 3.535156 -13.976562 3.515625 -13.867188 3.484375 -13.734375 C 3.453125 -13.597656 3.421875 -13.46875 3.390625 -13.34375 C 3.265625 -12.800781 3.203125 -12.351562 3.203125 -12 C 3.203125 -11.15625 3.507812 -10.734375 4.125 -10.734375 C 5.164062 -10.734375 7.070312 -11.878906 9.84375 -14.171875 C 10.21875 -14.492188 10.40625 -14.738281 10.40625 -14.90625 L 10.390625 -15.046875 C 10.304688 -15.253906 10.179688 -15.359375 10.015625 -15.359375 C 9.804688 -15.359375 9.539062 -15.222656 9.21875 -14.953125 C 8.425781 -14.335938 7.570312 -13.707031 6.65625 -13.0625 C 5.4375 -12.207031 4.65625 -11.78125 4.3125 -11.78125 C 4.21875 -11.78125 4.171875 -11.84375 4.171875 -11.96875 C 4.171875 -12.175781 4.238281 -12.539062 4.375 -13.0625 C 4.507812 -13.582031 4.578125 -14.019531 4.578125 -14.375 C 4.578125 -15.0625 4.34375 -15.40625 3.875 -15.40625 C 3.25 -15.40625 2.210938 -14.765625 0.765625 -13.484375 L 0.75 -13.46875 L 0.75 -13.484375 C 0.75 -13.535156 0.859375 -13.785156 1.078125 -14.234375 C 1.359375 -14.710938 1.5 -15.070312 1.5 -15.3125 C 1.5 -15.539062 1.34375 -15.65625 1.03125 -15.65625 C 0.90625 -15.65625 0.8125 -15.601562 0.75 -15.5 C 0.59375 -15.28125 0.363281 -14.898438 0.0625 -14.359375 L -0.65625 -13.015625 C -1.25 -11.941406 -1.546875 -11.28125 -1.546875 -11.03125 C -1.546875 -11.019531 -1.539062 -10.976562 -1.53125 -10.90625 C -1.519531 -10.84375 -1.445312 -10.769531 -1.3125 -10.6875 C -1.195312 -10.625 -1.09375 -10.59375 -1 -10.59375 Z M -0.859375 -10.59375 "/></g></g></g><g fill="#000000" fill-opacity="1"><g transform="translate(85.218086, 36.896516)"><g/></g></g><g fill="#000000" fill-opacity="1"><g transform="translate(99.218468, 36.896516)"><g><path d="M 3.34375 3.296875 C 4.84375 3.296875 6.707031 2.910156 8.9375 2.140625 C 11.164062 1.367188 13.226562 0.289062 15.125 -1.09375 C 17.832031 -3.207031 19.1875 -5.28125 19.1875 -7.3125 C 19.1875 -8.382812 18.8125 -9.441406 18.0625 -10.484375 C 18.03125 -10.515625 18.003906 -10.546875 17.984375 -10.578125 C 17.960938 -10.609375 17.953125 -10.65625 17.953125 -10.71875 C 17.953125 -10.789062 18.132812 -10.921875 18.5 -11.109375 C 18.875 -11.296875 19.71875 -11.6875 21.03125 -12.28125 L 22.1875 -12.8125 C 23.75 -13.53125 24.769531 -14.015625 25.25 -14.265625 C 25.726562 -14.515625 25.984375 -14.707031 26.015625 -14.84375 C 26.015625 -14.90625 26 -14.988281 25.96875 -15.09375 C 25.9375 -15.207031 25.894531 -15.28125 25.84375 -15.3125 C 25.800781 -15.351562 25.742188 -15.375 25.671875 -15.375 C 25.472656 -15.375 25.082031 -15.25 24.5 -15 C 23.351562 -14.507812 21.742188 -13.78125 19.671875 -12.8125 L 19.296875 -12.65625 C 18.566406 -12.289062 18.035156 -12.035156 17.703125 -11.890625 C 17.367188 -11.753906 17.140625 -11.6875 17.015625 -11.6875 C 16.929688 -11.6875 16.859375 -11.726562 16.796875 -11.8125 C 16.441406 -12.164062 15.828125 -12.628906 14.953125 -13.203125 C 14.273438 -13.640625 13.289062 -14.21875 12 -14.9375 C 10.425781 -15.8125 9.257812 -16.523438 8.5 -17.078125 C 6.875 -18.265625 6.0625 -19.710938 6.0625 -21.421875 C 6.0625 -22.328125 6.421875 -23.519531 7.140625 -25 C 7.867188 -26.488281 9.367188 -28.035156 11.640625 -29.640625 C 13.910156 -31.242188 16.503906 -32.285156 19.421875 -32.765625 C 20.117188 -32.859375 20.800781 -32.90625 21.46875 -32.90625 C 22.6875 -32.90625 24.007812 -32.707031 25.4375 -32.3125 C 26.863281 -31.925781 28.125 -31.222656 29.21875 -30.203125 C 30.320312 -29.191406 30.921875 -28 31.015625 -26.625 C 31.046875 -26.15625 31.160156 -25.851562 31.359375 -25.71875 C 31.410156 -25.6875 31.457031 -25.671875 31.5 -25.671875 C 31.644531 -25.671875 31.765625 -25.789062 31.859375 -26.03125 C 31.953125 -26.269531 32 -26.539062 32 -26.84375 C 32 -27.320312 31.832031 -27.96875 31.5 -28.78125 C 31.164062 -29.601562 30.582031 -30.394531 29.75 -31.15625 C 27.59375 -32.988281 24.863281 -33.90625 21.5625 -33.90625 C 20.050781 -33.90625 18.316406 -33.644531 16.359375 -33.125 C 14.410156 -32.601562 12.453125 -31.609375 10.484375 -30.140625 C 8.515625 -28.679688 6.988281 -26.878906 5.90625 -24.734375 C 5.269531 -23.492188 4.953125 -22.335938 4.953125 -21.265625 C 4.953125 -20.484375 5.226562 -19.519531 5.78125 -18.375 C 6.332031 -17.226562 8.0625 -15.875 10.96875 -14.3125 L 12.109375 -13.671875 L 13.390625 -12.921875 C 13.941406 -12.597656 14.472656 -12.265625 14.984375 -11.921875 C 15.640625 -11.472656 15.96875 -11.203125 15.96875 -11.109375 L 15.96875 -11.078125 C 15.945312 -11.066406 15.90625 -11.050781 15.84375 -11.03125 L 14.03125 -10.171875 C 11.976562 -9.148438 10.320312 -8.285156 9.0625 -7.578125 C 6.289062 -5.992188 4.132812 -4.425781 2.59375 -2.875 C 0.96875 -1.238281 0.15625 0.160156 0.15625 1.328125 C 0.15625 2.367188 0.941406 3.007812 2.515625 3.25 C 2.785156 3.28125 3.0625 3.296875 3.34375 3.296875 Z M 3.53125 2.21875 C 3.4375 2.21875 3.222656 2.210938 2.890625 2.203125 C 2.566406 2.191406 2.25 2.132812 1.9375 2.03125 C 1.46875 1.863281 1.234375 1.5625 1.234375 1.125 C 1.234375 0.78125 1.5 0.1875 2.03125 -0.65625 C 2.5625 -1.507812 3.851562 -2.722656 5.90625 -4.296875 C 8.070312 -5.941406 11.585938 -7.894531 16.453125 -10.15625 L 16.828125 -10.3125 C 17.703125 -9.363281 18.140625 -8.378906 18.140625 -7.359375 C 18.140625 -6.171875 17.539062 -4.921875 16.34375 -3.609375 C 15.144531 -2.296875 13.46875 -1.101562 11.3125 -0.03125 C 9.164062 1.03125 7.03125 1.75 4.90625 2.125 C 4.445312 2.1875 3.988281 2.21875 3.53125 2.21875 Z M 3.53125 2.21875 "/></g></g></g><g fill="#000000" fill-opacity="1"><g transform="translate(124.022483, 36.896516)"><g><path d="M 3.4375 -10.265625 C 3.769531 -10.265625 4.175781 -10.351562 4.65625 -10.53125 C 5.132812 -10.71875 5.765625 -11.070312 6.546875 -11.59375 C 7.328125 -12.113281 8.085938 -12.660156 8.828125 -13.234375 L 9.125 -13.4375 C 9.53125 -13.769531 9.875 -14.050781 10.15625 -14.28125 C 10.4375 -14.519531 10.578125 -14.671875 10.578125 -14.734375 C 10.585938 -14.804688 10.59375 -14.859375 10.59375 -14.890625 C 10.59375 -15.023438 10.550781 -15.125 10.46875 -15.1875 C 10.382812 -15.25 10.285156 -15.28125 10.171875 -15.28125 C 10.128906 -15.28125 10.046875 -15.269531 9.921875 -15.25 C 9.804688 -15.238281 9.378906 -14.957031 8.640625 -14.40625 C 7.390625 -13.445312 6.285156 -12.675781 5.328125 -12.09375 C 4.484375 -11.570312 3.882812 -11.3125 3.53125 -11.3125 C 3.21875 -11.3125 3.0625 -11.460938 3.0625 -11.765625 C 3.0625 -11.828125 3.085938 -12.007812 3.140625 -12.3125 C 3.191406 -12.613281 3.628906 -13.25 4.453125 -14.21875 C 4.765625 -14.550781 4.921875 -14.8125 4.921875 -15 C 4.921875 -15.175781 4.820312 -15.296875 4.625 -15.359375 C 4.570312 -15.367188 4.523438 -15.398438 4.484375 -15.453125 C 4.453125 -15.515625 4.410156 -15.578125 4.359375 -15.640625 C 4.066406 -16.078125 3.648438 -16.296875 3.109375 -16.296875 C 2.078125 -16.296875 0.988281 -15.742188 -0.15625 -14.640625 C -1.25 -13.460938 -1.796875 -12.507812 -1.796875 -11.78125 L -1.78125 -11.5 C -1.6875 -11.050781 -1.390625 -10.828125 -0.890625 -10.828125 C -0.265625 -10.828125 0.484375 -11.140625 1.359375 -11.765625 C 1.398438 -11.804688 1.5625 -11.929688 1.84375 -12.140625 L 2.046875 -12.25 C 2.066406 -12.25 2.078125 -12.210938 2.078125 -12.140625 L 2.046875 -11.78125 C 2.046875 -11.039062 2.367188 -10.550781 3.015625 -10.3125 C 3.140625 -10.28125 3.28125 -10.265625 3.4375 -10.265625 Z M -0.65625 -11.8125 C -0.695312 -11.8125 -0.71875 -11.828125 -0.71875 -11.859375 C -0.71875 -11.929688 -0.664062 -12.09375 -0.5625 -12.34375 C -0.28125 -12.90625 0.140625 -13.441406 0.703125 -13.953125 C 1.117188 -14.347656 1.546875 -14.675781 1.984375 -14.9375 C 2.515625 -15.25 2.925781 -15.40625 3.21875 -15.40625 C 3.457031 -15.40625 3.582031 -15.285156 3.59375 -15.046875 C 3.59375 -14.941406 3.097656 -14.484375 2.109375 -13.671875 C 1.117188 -12.867188 0.398438 -12.34375 -0.046875 -12.09375 C -0.359375 -11.90625 -0.5625 -11.8125 -0.65625 -11.8125 Z M -0.65625 -11.8125 "/></g></g></g><g fill="#000000" fill-opacity="1"><g transform="translate(133.146071, 36.896516)"><g><path d="M -0.859375 -10.59375 C -0.753906 -10.613281 -0.304688 -11.003906 0.484375 -11.765625 C 1.222656 -12.484375 1.816406 -13.03125 2.265625 -13.40625 C 2.710938 -13.789062 3.101562 -14.0625 3.4375 -14.21875 L 3.578125 -14.3125 C 3.578125 -14.226562 3.566406 -14.144531 3.546875 -14.0625 C 3.535156 -13.976562 3.515625 -13.867188 3.484375 -13.734375 C 3.453125 -13.597656 3.421875 -13.46875 3.390625 -13.34375 C 3.265625 -12.800781 3.203125 -12.351562 3.203125 -12 C 3.203125 -11.15625 3.507812 -10.734375 4.125 -10.734375 C 5.164062 -10.734375 7.070312 -11.878906 9.84375 -14.171875 C 10.21875 -14.492188 10.40625 -14.738281 10.40625 -14.90625 L 10.390625 -15.046875 C 10.304688 -15.253906 10.179688 -15.359375 10.015625 -15.359375 C 9.804688 -15.359375 9.539062 -15.222656 9.21875 -14.953125 C 8.425781 -14.335938 7.570312 -13.707031 6.65625 -13.0625 C 5.4375 -12.207031 4.65625 -11.78125 4.3125 -11.78125 C 4.21875 -11.78125 4.171875 -11.84375 4.171875 -11.96875 C 4.171875 -12.175781 4.238281 -12.539062 4.375 -13.0625 C 4.507812 -13.582031 4.578125 -14.019531 4.578125 -14.375 C 4.578125 -15.0625 4.34375 -15.40625 3.875 -15.40625 C 3.25 -15.40625 2.210938 -14.765625 0.765625 -13.484375 L 0.75 -13.46875 L 0.75 -13.484375 C 0.75 -13.535156 0.859375 -13.785156 1.078125 -14.234375 C 1.359375 -14.710938 1.5 -15.070312 1.5 -15.3125 C 1.5 -15.539062 1.34375 -15.65625 1.03125 -15.65625 C 0.90625 -15.65625 0.8125 -15.601562 0.75 -15.5 C 0.59375 -15.28125 0.363281 -14.898438 0.0625 -14.359375 L -0.65625 -13.015625 C -1.25 -11.941406 -1.546875 -11.28125 -1.546875 -11.03125 C -1.546875 -11.019531 -1.539062 -10.976562 -1.53125 -10.90625 C -1.519531 -10.84375 -1.445312 -10.769531 -1.3125 -10.6875 C -1.195312 -10.625 -1.09375 -10.59375 -1 -10.59375 Z M -0.859375 -10.59375 "/></g></g></g></svg>