 <svg width="24" height="24" viewBox="0 0 24 24" fill="none" xmlns="http://www.w3.org/2000/svg">
                                        <path d="M10.499 17.7501C10.3663 17.75 10.236 17.7147 10.1215 17.6479C10.0069 17.581 9.91206 17.4849 9.84672 17.3695C9.78139 17.254 9.74787 17.1232 9.74957 16.9906C9.75128 16.8579 9.78816 16.7281 9.85644 16.6143L12.8564 11.6143C12.9071 11.5298 12.9739 11.4561 13.053 11.3974C13.1322 11.3387 13.2221 11.2962 13.3177 11.2722C13.4133 11.2483 13.5126 11.2434 13.6101 11.2579C13.7076 11.2723 13.8012 11.3059 13.8857 11.3565C13.9702 11.4072 14.0439 11.474 14.1026 11.5531C14.1613 11.6323 14.2039 11.7222 14.2278 11.8178C14.2517 11.9133 14.2566 12.0127 14.2422 12.1102C14.2277 12.2076 14.1942 12.3013 14.1435 12.3858L11.1435 17.3858C11.0767 17.497 10.9823 17.5891 10.8693 17.6529C10.7563 17.7168 10.6288 17.7502 10.499 17.7501Z" fill="#FFB646" />
                                        <path d="M8 17.75C7.82438 17.7504 7.65425 17.6888 7.51953 17.5762L4.51953 15.0762C4.43516 15.0057 4.36729 14.9176 4.32071 14.8181C4.27414 14.7185 4.25 14.6099 4.25 14.5C4.25 14.3901 4.27414 14.2815 4.32071 14.182C4.36729 14.0824 4.43516 13.9943 4.51953 13.9239L7.51953 11.4239C7.67243 11.2972 7.86929 11.2364 8.06697 11.2546C8.26465 11.2729 8.44704 11.3687 8.57418 11.5212C8.70132 11.6737 8.76285 11.8703 8.74528 12.0681C8.72772 12.2658 8.63249 12.4485 8.48047 12.5762L6.17188 14.5L8.48047 16.4239C8.5989 16.5225 8.68404 16.6553 8.72431 16.8041C8.76457 16.953 8.758 17.1106 8.70548 17.2555C8.65297 17.4004 8.55707 17.5257 8.43083 17.6142C8.3046 17.7027 8.15416 17.7501 8 17.75Z" fill="#FFB646" />
                                        <path d="M16 17.7499C15.8459 17.75 15.6954 17.7026 15.5692 17.6141C15.4429 17.5256 15.347 17.4003 15.2945 17.2554C15.242 17.1105 15.2355 16.9529 15.2757 16.8041C15.316 16.6552 15.4011 16.5225 15.5195 16.4238L17.8281 14.4999L15.5195 12.5761C15.4435 12.5131 15.3806 12.4358 15.3345 12.3484C15.2885 12.2611 15.2601 12.1656 15.251 12.0672C15.2419 11.9689 15.2523 11.8698 15.2816 11.7755C15.311 11.6812 15.3586 11.5936 15.4218 11.5178C15.4851 11.442 15.5627 11.3794 15.6502 11.3336C15.7376 11.2878 15.8333 11.2597 15.9316 11.251C16.03 11.2423 16.1291 11.253 16.2233 11.2827C16.3175 11.3123 16.4049 11.3603 16.4805 11.4238L19.4805 13.9238C19.5649 13.9942 19.6327 14.0823 19.6793 14.1819C19.7259 14.2814 19.75 14.39 19.75 14.4999C19.75 14.6098 19.7259 14.7184 19.6793 14.818C19.6327 14.9175 19.5649 15.0057 19.4805 15.0761L16.4805 17.5761C16.3458 17.6888 16.1756 17.7503 16 17.7499Z" fill="#FFB646" />
                                        <path d="M21 21.75H3C2.53604 21.7494 2.09125 21.5649 1.76319 21.2368C1.43512 20.9087 1.25056 20.464 1.25 20V4C1.25056 3.53604 1.43512 3.09125 1.76319 2.76319C2.09125 2.43512 2.53604 2.25056 3 2.25H21C21.464 2.25056 21.9087 2.43512 22.2368 2.76319C22.5649 3.09125 22.7494 3.53604 22.75 4V20C22.7494 20.464 22.5649 20.9087 22.2368 21.2368C21.9087 21.5649 21.464 21.7494 21 21.75ZM3 3.75C2.93373 3.75013 2.87022 3.77651 2.82336 3.82336C2.77651 3.87022 2.75013 3.93373 2.75 4V20C2.75013 20.0663 2.77651 20.1298 2.82336 20.1766C2.87022 20.2235 2.93373 20.2499 3 20.25H21C21.0663 20.2499 21.1298 20.2235 21.1766 20.1766C21.2235 20.1298 21.2499 20.0663 21.25 20V4C21.2499 3.93373 21.2235 3.87022 21.1766 3.82336C21.1298 3.77651 21.0663 3.75013 21 3.75H3Z" fill="#080808" fill-opacity="0.9" />
                                        <path d="M22 8.75H2C1.80109 8.75 1.61032 8.67098 1.46967 8.53033C1.32902 8.38968 1.25 8.19891 1.25 8C1.25 7.80109 1.32902 7.61032 1.46967 7.46967C1.61032 7.32902 1.80109 7.25 2 7.25H22C22.1989 7.25 22.3897 7.32902 22.5303 7.46967C22.671 7.61032 22.75 7.80109 22.75 8C22.75 8.19891 22.671 8.38968 22.5303 8.53033C22.3897 8.67098 22.1989 8.75 22 8.75Z" fill="#080808" fill-opacity="0.9" />
                                        <path d="M5 6.5C5.55228 6.5 6 6.05228 6 5.5C6 4.94772 5.55228 4.5 5 4.5C4.44772 4.5 4 4.94772 4 5.5C4 6.05228 4.44772 6.5 5 6.5Z" fill="#080808" fill-opacity="0.9" />
                                        <path d="M8 6.5C8.55228 6.5 9 6.05228 9 5.5C9 4.94772 8.55228 4.5 8 4.5C7.44772 4.5 7 4.94772 7 5.5C7 6.05228 7.44772 6.5 8 6.5Z" fill="#080808" fill-opacity="0.9" />
                                        <path d="M11 6.5C11.5523 6.5 12 6.05228 12 5.5C12 4.94772 11.5523 4.5 11 4.5C10.4477 4.5 10 4.94772 10 5.5C10 6.05228 10.4477 6.5 11 6.5Z" fill="#080808" fill-opacity="0.9" />
                                    </svg>