 <svg width="24" height="24" viewBox="0 0 24 24" fill="none" xmlns="http://www.w3.org/2000/svg">
                                        <g clip-path="url(#clip0_1513_4988)">
                                            <path d="M6.51562 6.28125C5.50758 6.28125 4.6875 5.46117 4.6875 4.45312C4.6875 3.44508 5.50758 2.625 6.51562 2.625C7.52367 2.625 8.34375 3.44508 8.34375 4.45312C8.34375 5.46117 7.52367 6.28125 6.51562 6.28125ZM6.51562 3.65625C6.07622 3.65625 5.71875 4.01372 5.71875 4.45312C5.71875 4.89253 6.07622 5.25 6.51562 5.25C6.95503 5.25 7.3125 4.89253 7.3125 4.45312C7.3125 4.01372 6.95503 3.65625 6.51562 3.65625Z" fill="#FFB646" />
                                            <path d="M3.91296 21.9375C2.90492 21.9375 2.08484 21.1174 2.08484 20.1094C2.08484 19.1013 2.90492 18.2812 3.91296 18.2812C4.92101 18.2812 5.74109 19.1013 5.74109 20.1094C5.74109 21.1174 4.92101 21.9375 3.91296 21.9375ZM3.91296 19.3125C3.47356 19.3125 3.11609 19.67 3.11609 20.1094C3.11609 20.5488 3.47356 20.9062 3.91296 20.9062C4.35237 20.9062 4.70984 20.5488 4.70984 20.1094C4.70984 19.67 4.35237 19.3125 3.91296 19.3125Z" fill="#FFB646" />
                                            <path d="M17.4717 9.86719C16.4636 9.86719 15.6436 9.04711 15.6436 8.03906C15.6436 7.03102 16.4636 6.21094 17.4717 6.21094C18.4797 6.21094 19.2998 7.03102 19.2998 8.03906C19.2998 9.04711 18.4797 9.86719 17.4717 9.86719ZM17.4717 7.24219C17.0323 7.24219 16.6748 7.59966 16.6748 8.03906C16.6748 8.47847 17.0323 8.83594 17.4717 8.83594C17.9111 8.83594 18.2686 8.47847 18.2686 8.03906C18.2686 7.59966 17.9111 7.24219 17.4717 7.24219Z" fill="#FFB646" />
                                            <path d="M23.4844 3.5625H18.7031V0.515625C18.7031 0.230859 18.4723 0 18.1875 0H2.57812C2.29336 0 2.0625 0.230859 2.0625 0.515625V14.1094H0.515625C0.230859 14.1094 0 14.3402 0 14.625V23.4844C0 23.7691 0.230859 24 0.515625 24H14.0625C14.3473 24 14.5781 23.7691 14.5781 23.4844V21.375H18.1875C18.4723 21.375 18.7031 21.1441 18.7031 20.8594V12.5156H23.4844C23.7691 12.5156 24 12.2848 24 12V4.07812C24 3.79336 23.7691 3.5625 23.4844 3.5625ZM13.4608 15.1406C13.246 15.7671 12.6515 16.2188 11.9531 16.2188H2.625C1.92666 16.2188 1.33219 15.7671 1.11731 15.1406H13.4608ZM1.03125 22.9688V16.7088C1.47352 17.0479 2.02598 17.25 2.625 17.25H11.9531C12.5521 17.25 13.1046 17.0479 13.5469 16.7088V22.9688H1.03125ZM17.6719 20.3438H14.5781V14.625C14.5781 14.3402 14.3473 14.1094 14.0625 14.1094H3.09375V1.03125H17.6719V3.5625H11.459C11.1742 3.5625 10.9433 3.79336 10.9433 4.07812V12C10.9433 12.2848 11.1742 12.5156 11.459 12.5156H17.6719V20.3438ZM22.9688 11.4844H11.9746V4.59375H22.9688V11.4844Z" fill="#080808" fill-opacity="0.9" />
                                            <path fill-rule="evenodd" clip-rule="evenodd" d="M18.8531 3.4126H23.4844C23.852 3.4126 24.15 3.71061 24.15 4.07822V12.0001C24.15 12.3677 23.852 12.6657 23.4844 12.6657H18.8531V20.8595C18.8531 21.2271 18.5551 21.5251 18.1875 21.5251H14.7281V23.4845C14.7281 23.8521 14.4301 24.1501 14.0625 24.1501H0.515601C0.147992 24.1501 -0.150024 23.8521 -0.150024 23.4845V14.6251C-0.150024 14.2575 0.147992 13.9595 0.515601 13.9595H1.91248V0.515723C1.91248 0.148114 2.21049 -0.149902 2.5781 -0.149902H18.1875C18.5551 -0.149902 18.8531 0.148114 18.8531 0.515723V3.4126ZM13.4608 15.1407H1.11729C1.13486 15.1919 1.15496 15.242 1.17746 15.2907C1.43007 15.838 1.98373 16.2188 2.62498 16.2188H11.9531C12.5944 16.2188 13.1481 15.838 13.4006 15.2907C13.4231 15.242 13.4432 15.1919 13.4608 15.1407ZM13.2336 15.2907H1.34453C1.58572 15.7529 2.06936 16.0688 2.62498 16.0688H11.9531C12.5088 16.0688 12.9924 15.7529 13.2336 15.2907ZM1.18123 16.9936V22.8188H13.3969V16.9936C12.9761 17.2512 12.4817 17.4001 11.9531 17.4001H2.62498C2.09641 17.4001 1.60201 17.2512 1.18123 16.9936ZM1.03123 22.9688H13.5469V16.7089C13.4982 16.7463 13.4481 16.7819 13.3969 16.8158C12.9824 17.09 12.4862 17.2501 11.9531 17.2501H2.62498C2.09191 17.2501 1.59571 17.09 1.18123 16.8158C1.12995 16.7819 1.07992 16.7463 1.03123 16.7089V22.9688ZM14.7281 20.1938H17.5219V12.6657H11.4589C11.0913 12.6657 10.7933 12.3677 10.7933 12.0001V4.07822C10.7933 3.71061 11.0913 3.4126 11.4589 3.4126H17.5219V1.18135H3.24373V13.9595H14.0625C14.4301 13.9595 14.7281 14.2575 14.7281 14.6251V20.1938ZM12.1246 11.3345H22.8187V4.74385H12.1246V11.3345ZM23.4844 3.5626C23.7691 3.5626 24 3.79346 24 4.07822V12.0001C24 12.2849 23.7691 12.5157 23.4844 12.5157H18.7031V20.8595C18.7031 21.1442 18.4722 21.3751 18.1875 21.3751H14.5781V23.4845C14.5781 23.7692 14.3472 24.0001 14.0625 24.0001H0.515601C0.230835 24.0001 -2.44081e-05 23.7692 -2.44081e-05 23.4845V14.6251C-2.44081e-05 14.3403 0.230835 14.1095 0.515601 14.1095H2.06248V0.515723C2.06248 0.230957 2.29333 9.76622e-05 2.5781 9.76622e-05H18.1875C18.4722 9.76622e-05 18.7031 0.230957 18.7031 0.515723V3.5626H23.4844ZM17.6719 20.3438V12.5157H11.4589C11.1742 12.5157 10.9433 12.2849 10.9433 12.0001V4.07822C10.9433 3.79346 11.1742 3.5626 11.4589 3.5626H17.6719V1.03135H3.09373V14.1095H14.0625C14.3472 14.1095 14.5781 14.3403 14.5781 14.6251V20.3438H17.6719ZM22.9687 11.4845V4.59385H11.9746V11.4845H22.9687Z" fill="#080808" fill-opacity="0.9" />
                                        </g>
                                        <defs>
                                            <clipPath id="clip0_1513_4988">
                                                <rect width="24" height="24" fill="white" />
                                            </clipPath>
                                        </defs>
                                    </svg>