  <svg width="24" height="24" viewBox="0 0 24 24" fill="none" xmlns="http://www.w3.org/2000/svg">
                                        <path d="M21.0776 0.993896H11.327C10.2601 0.993896 9.39209 1.8619 9.39209 2.92874V10.4249L10.3379 9.63522V4.56203H22.0666V21.0708C22.0666 21.6161 21.6229 22.0598 21.0776 22.0598H11.327C10.7816 22.0598 10.3379 21.6161 10.3379 21.0708V21.0149H9.39209V21.0708C9.39209 22.1377 10.26 23.0056 11.327 23.0056H21.0776C22.1445 23.0056 23.0125 22.1377 23.0125 21.0708V2.92874C23.0125 1.86186 22.1445 0.993896 21.0776 0.993896ZM10.3379 3.61622V2.92874C10.3379 2.38339 10.7816 1.93971 11.327 1.93971H21.0776C21.623 1.93971 22.0666 2.38339 22.0666 2.92874V3.61622H10.3379Z" fill="#080808" fill-opacity="0.9" />
                                        <path fill-rule="evenodd" clip-rule="evenodd" d="M9.25446 10.7192V2.92886C9.25446 1.78604 10.1841 0.856445 11.3269 0.856445H21.0776C22.2204 0.856445 23.15 1.786 23.15 2.92886V21.0709C23.15 22.2138 22.2204 23.1433 21.0776 23.1433H11.3269C10.184 23.1433 9.25446 22.2138 9.25446 21.0709V20.8774H10.4754V21.0709C10.4754 21.5403 10.8575 21.9224 11.3269 21.9224H21.0775C21.5469 21.9224 21.929 21.5403 21.929 21.0709V4.69974H10.4754V9.69971L9.25446 10.7192ZM9.39203 2.92886C9.39203 1.86202 10.26 0.994023 11.3269 0.994023H21.0776C22.1444 0.994023 23.0124 1.86198 23.0124 2.92886V21.0709C23.0124 22.1378 22.1444 23.0058 21.0776 23.0058H11.3269C10.2873 23.0058 9.43666 22.1817 9.39373 21.1526C9.3926 21.1255 9.39203 21.0983 9.39203 21.0709V21.015H10.3378V21.0709C10.3378 21.6163 10.7815 22.0599 11.3269 22.0599H21.0775C21.6229 22.0599 22.0665 21.6163 22.0665 21.0709V4.56216H10.3378V9.63535L9.39203 10.4251V2.92886ZM10.4754 2.92886V3.47877H21.929V2.92886C21.929 2.4595 21.5469 2.07742 21.0776 2.07742H11.3269C10.8575 2.07742 10.4754 2.4595 10.4754 2.92886ZM10.3378 3.61634H22.0666V2.92886C22.0666 2.38351 21.6229 1.93984 21.0776 1.93984H11.3269C10.7815 1.93984 10.3378 2.38351 10.3378 2.92886V3.61634Z" fill="#080808" fill-opacity="0.9" />
                                        <path d="M17.3008 20.3836C17.562 20.3836 17.7737 20.1718 17.7737 19.9107C17.7737 19.6495 17.562 19.4377 17.3008 19.4377H15.1231C14.8619 19.4377 14.6501 19.6495 14.6501 19.9107C14.6501 20.1718 14.8619 20.3836 15.1231 20.3836H17.3008Z" fill="#080808" fill-opacity="0.9" />
                                        <path d="M19.5284 20.1733C19.7036 20.451 20.1391 20.4503 20.3147 20.1733C20.5485 19.8289 20.2363 19.3621 19.8289 19.4472C19.5055 19.5043 19.3396 19.9043 19.5284 20.1733Z" fill="#080808" fill-opacity="0.9" />
                                        <path d="M14.6022 8.76622C14.5955 8.28063 14.3974 7.829 14.0442 7.49461C13.3496 6.8368 12.225 6.86092 11.5375 7.54844L5.83441 13.2515L5.83458 11.2586C5.83415 10.2753 5.0339 9.47498 4.05042 9.47455C3.57412 9.47455 3.1261 9.66028 2.78888 9.99755C2.45182 10.3346 2.26623 10.7825 2.26623 11.2587V11.4851C2.26623 12.8458 1.97375 14.2091 1.39702 15.537C1.01796 16.4097 0.907562 17.3676 1.07777 18.3071C1.2521 19.2694 1.71099 20.1448 2.4047 20.8385L3.16806 21.6018C4.10257 22.5363 5.33011 23.0035 6.55766 23.0035C7.7852 23.0035 9.01274 22.5362 9.94725 21.6018L13.4026 18.1464C14.0901 17.4589 14.1142 16.3344 13.4564 15.6397C13.122 15.2865 12.6704 15.0884 12.1847 15.0817C12.1523 15.0812 12.12 15.0817 12.0878 15.0829C12.107 14.6026 11.9335 14.1158 11.5676 13.7499C11.3574 13.5398 11.1041 13.3885 10.8276 13.3044L14.0797 10.0522C14.4233 9.70873 14.6088 9.25198 14.6022 8.76622ZM13.411 9.38345L9.04451 13.7499L7.48688 15.3075C7.30218 15.4922 7.30218 15.7917 7.48688 15.9764C7.57922 16.0687 7.70024 16.1149 7.82127 16.1149C7.94233 16.1149 8.06331 16.0687 8.15566 15.9764C8.15566 15.9764 9.71144 14.4206 9.71329 14.4187C10.0349 14.0971 10.5781 14.098 10.8987 14.4187C11.2256 14.7455 11.2256 15.2773 10.8987 15.6041L9.34111 17.1618C9.15642 17.3465 9.15642 17.6459 9.34111 17.8306C9.43345 17.923 9.55448 17.9691 9.6755 17.9691C9.79652 17.9691 9.91754 17.923 10.0099 17.8306C10.0099 17.8306 11.5648 16.2757 11.5675 16.273C11.8908 15.9497 12.4571 15.9601 12.7696 16.29C13.0785 16.6162 13.0624 17.149 12.7337 17.4777L9.27838 20.933C7.77815 22.4332 5.33708 22.4332 3.83684 20.933L3.07348 20.1697C1.94792 19.0442 1.63042 17.3736 2.26451 15.9138C2.89322 14.4662 3.212 12.9762 3.212 11.4851C3.212 11.4851 3.212 11.2591 3.212 11.2587C3.212 10.8016 3.59347 10.4204 4.05017 10.4204C4.51237 10.4206 4.88855 10.7968 4.88872 11.2587L4.88842 14.3933C4.88842 14.5846 5.00364 14.757 5.18033 14.8303C5.35698 14.9035 5.56042 14.863 5.69572 14.7278L12.2062 8.21726C12.5348 7.88863 13.0677 7.87251 13.3938 8.18145C13.7327 8.50221 13.7407 9.05379 13.411 9.38345Z" fill="#FFB646" />
                                    </svg>
